<?xml version="1.0" encoding="UTF-8" standalone="no"?>
<!-- Created with Inkscape (http://www.inkscape.org/) -->

<svg
   width="5.1583776mm"
   height="5.1593752mm"
   viewBox="0 0 5.1583776 5.1593752"
   version="1.1"
   id="svg1"
   xmlns="http://www.w3.org/2000/svg"
   xmlns:svg="http://www.w3.org/2000/svg">
  <defs
     id="defs1" />
  <g
     id="layer1"
     transform="translate(-61.185893,-237.39739)">
    <path
       d="m 63.764583,237.3974 a 0.1984375,0.1984375 0 0 1 0.198438,0.19843 v 0.59532 a 0.1984375,0.1984375 0 0 1 -0.396875,0 v -0.59532 a 0.1984375,0.1984375 0 0 1 0.198437,-0.19843 z m -1.190625,2.57968 a 1.190625,1.190625 0 1 1 2.38125,0 1.190625,1.190625 0 0 1 -2.38125,0 z m 3.014663,-1.54358 a 0.1984375,0.1984375 0 0 0 -0.280458,-0.28045 l -0.420953,0.42068 a 0.1984375,0.1984375 0 1 0 0.280459,0.28073 l 0.420952,-0.42069 z m 0.75565,1.54358 a 0.1984375,0.1984375 0 0 1 -0.198438,0.19844 h -0.595312 a 0.1984375,0.1984375 0 0 1 0,-0.39687 h 0.595312 a 0.1984375,0.1984375 0 0 1 0.198438,0.19843 z m -1.036108,1.82404 a 0.1984375,0.1984375 0 0 0 0.280458,-0.28046 l -0.420688,-0.42095 a 0.1984375,0.1984375 0 1 0 -0.280723,0.28046 l 0.420688,0.42095 z m -1.54358,-0.23654 a 0.1984375,0.1984375 0 0 1 0.198438,0.19844 v 0.59531 a 0.1984375,0.1984375 0 0 1 -0.396875,0 v -0.59531 a 0.1984375,0.1984375 0 0 1 0.198437,-0.19844 z m -1.122362,-0.18441 a 0.1984375,0.1984375 0 0 0 -0.280723,-0.28046 l -0.420952,0.42069 a 0.1984375,0.1984375 0 0 0 0.280458,0.28072 l 0.420952,-0.42069 z m -0.465138,-1.40309 a 0.1984375,0.1984375 0 0 1 -0.198437,0.19844 h -0.595313 a 0.1984375,0.1984375 0 0 1 0,-0.39687 h 0.595313 a 0.1984375,0.1984375 0 0 1 0.198437,0.19843 z m 0.184415,-1.12262 a 0.1984375,0.1984375 0 0 0 0.280458,-0.28046 l -0.420687,-0.42095 a 0.1984375,0.1984375 0 0 0 -0.280723,0.28045 l 0.420687,0.42096 z"
       id="path1-3"
       style="fill:#ffffff;fill-opacity:1;stroke-width:0.264583" />
  </g>
</svg>
